<svg width="36" height="45" fill="none" xmlns="http://www.w3.org/2000/svg"><path d="M33.623 23.273H30.87a.58.58 0 0 1-.569-.41 12.652 12.652 0 0 0-.738-1.779.582.582 0 0 1 .11-.692l1.95-1.95c.313-.313.489-.733.489-1.181 0-.448-.176-.869-.49-1.183l-1.57-1.57a3.446 3.446 0 0 0-2.425-2.189V8.435a.536.536 0 0 0-.535-.535h-8.41V6.33a2.695 2.695 0 0 0 2.157-2.638 2.692 2.692 0 1 0-3.228 2.637V7.9h-8.41a.536.536 0 0 0-.536.536v3.884a3.436 3.436 0 0 0-2.424 2.19l-1.57 1.57c-.315.313-.49.734-.49 1.182 0 .448.175.868.49 1.182l1.948 1.949c.19.19.231.457.111.697a13 13 0 0 0-.739 1.778.58.58 0 0 1-.568.411H2.672c-.92 0-1.672.748-1.672 1.672v3.82c0 .918.748 1.671 1.672 1.671h2.752a.58.58 0 0 1 .568.411c.199.605.448 1.205.74 1.778.12.24.078.503-.112.693l-1.949 1.949c-.314.314-.49.734-.49 1.182 0 .448.176.868.49 1.182l2.702 2.702c.314.314.734.49 1.182.49.448 0 .869-.176 1.183-.49l1.944-1.958a.583.583 0 0 1 .693-.111c.572.29 1.168.535 1.778.739a.58.58 0 0 1 .41.568v2.752c0 .92.749 1.672 1.672 1.672h3.82c.919 0 1.672-.748 1.672-1.672v-2.752a.58.58 0 0 1 .41-.568 12.664 12.664 0 0 0 1.779-.74.59.59 0 0 1 .697.112l1.949 1.948c.314.315.734.49 1.182.49.448 0 .868-.175 1.182-.49l2.702-2.701c.314-.314.49-.734.49-1.182 0-.448-.176-.869-.49-1.183l-1.949-1.949a.583.583 0 0 1-.11-.692c.29-.573.535-1.169.738-1.778a.58.58 0 0 1 .568-.411h2.752c.92 0 1.672-.748 1.672-1.672v-3.82a1.677 1.677 0 0 0-1.676-1.667ZM16.526 3.697a1.62 1.62 0 1 1 3.242 0 1.62 1.62 0 1 1-3.242 0Zm12.65 11.938c0 .998-.647 1.87-1.547 2.194V13.44a2.34 2.34 0 0 1 1.547 2.194ZM9.738 8.975h16.824v13.32H9.738V8.974Zm15.61 17.878c0 3.971-3.229 7.2-7.2 7.2a7.206 7.206 0 0 1-6.3-10.692h12.594a7.204 7.204 0 0 1 .905 3.492ZM8.665 13.437v4.387A2.351 2.351 0 0 1 7.12 15.63a2.35 2.35 0 0 1 1.547-2.193Zm25.557 15.328a.6.6 0 0 1-.6.6H30.87c-.735 0-1.358.453-1.59 1.15a12.178 12.178 0 0 1-.673 1.626 1.641 1.641 0 0 0 .309 1.934l1.949 1.95a.6.6 0 0 1 0 .85l-2.702 2.7a.601.601 0 0 1-.85 0l-1.948-1.948a1.642 1.642 0 0 0-1.935-.31c-.522.264-1.072.495-1.626.675-.697.23-1.15.85-1.15 1.588v2.753a.6.6 0 0 1-.6.6h-3.82a.6.6 0 0 1-.6-.6V39.58c0-.734-.453-1.357-1.15-1.588a12.178 12.178 0 0 1-1.625-.674 1.641 1.641 0 0 0-1.935.309l-1.95 1.949a.601.601 0 0 1-.85 0l-2.7-2.702a.6.6 0 0 1 0-.85l1.948-1.949c.522-.521.642-1.279.31-1.934a11.596 11.596 0 0 1-.675-1.626 1.648 1.648 0 0 0-1.588-1.15H2.667a.6.6 0 0 1-.6-.6v-3.82a.6.6 0 0 1 .6-.6H5.42c.734 0 1.357-.453 1.588-1.15.185-.554.411-1.104.675-1.626a1.641 1.641 0 0 0-.31-1.935l-1.949-1.948a.6.6 0 0 1 0-.85l.665-.665a3.446 3.446 0 0 0 2.573 2.77v3.885c0 .295.24.535.535.535h1.45a8.247 8.247 0 0 0-.77 3.492c0 4.558 3.708 8.27 8.27 8.27 4.563 0 8.272-3.708 8.272-8.27 0-1.21-.264-2.402-.772-3.492h1.45c.296 0 .536-.24.536-.535v-3.884a3.44 3.44 0 0 0 2.573-2.771l.665.665a.601.601 0 0 1 0 .85l-1.95 1.948a1.642 1.642 0 0 0-.309 1.935c.263.522.494 1.072.674 1.626.231.697.85 1.15 1.59 1.15h2.751a.6.6 0 0 1 .6.6v3.82h-.004ZM13.908 10.8a2.895 2.895 0 0 0-2.891 2.89 2.895 2.895 0 0 0 2.89 2.892A2.895 2.895 0 0 0 16.8 13.69a2.892 2.892 0 0 0-2.891-2.891Zm0 4.715a1.825 1.825 0 0 1 0-3.648 1.825 1.825 0 0 1 0 3.648Zm8.479-4.715a2.895 2.895 0 0 0-2.891 2.89 2.895 2.895 0 0 0 2.89 2.892 2.895 2.895 0 0 0 2.892-2.891 2.895 2.895 0 0 0-2.891-2.891Zm0 4.715a1.825 1.825 0 0 1 0-3.648 1.825 1.825 0 0 1 0 3.648Z" fill="#fff" stroke="#fff" stroke-width=".5"/></svg>