<svg width="42" height="45" fill="none" xmlns="http://www.w3.org/2000/svg"><path d="M39.504 1H22.56a1.299 1.299 0 0 0-1.307 1.297v3.906a1.299 1.299 0 0 0 1.307 1.298h.648v5.203a11.948 11.948 0 0 0-2.902-.368 12.335 12.335 0 0 0-10.92 18.066L1.921 37.87a3.146 3.146 0 0 0 0 4.448l.735.735a3.1 3.1 0 0 0 2.224.93 3.138 3.138 0 0 0 2.235-.93l7.465-7.467a12.173 12.173 0 0 0 8.656 1.046 7.811 7.811 0 0 0 15.61-.446V7.501h.658A1.296 1.296 0 0 0 40.8 6.203V2.297A1.3 1.3 0 0 0 39.504 1ZM6.195 42.124a1.903 1.903 0 0 1-2.62 0l-.737-.715a1.881 1.881 0 0 1 0-2.63l7.236-7.216a12.802 12.802 0 0 0 3.345 3.347l-7.224 7.214Zm14.111-6.421a11.036 11.036 0 1 1 11.035-11.025 11.047 11.047 0 0 1-11.035 11.025Zm17.235.483a6.514 6.514 0 0 1-13.028.057 12.333 12.333 0 0 0 8.133-11.565 12.46 12.46 0 0 0-.56-3.676 4.005 4.005 0 0 0 2.379-.793c.02 0 .04-.02.06-.04a3.004 3.004 0 0 1 3.016-.114v16.131Zm0-17.544a4.227 4.227 0 0 0-3.869.541c-.02 0-.04.02-.057.04a2.99 2.99 0 0 1-2.052.444 12.37 12.37 0 0 0-7.05-6.577V7.5h13.028v11.142Zm1.963-12.439H22.56V2.297h16.944v3.906ZM20.306 16.204a8.472 8.472 0 1 0-.002 16.944 8.472 8.472 0 0 0 .002-16.944Zm0 15.63a7.166 7.166 0 1 1 0-14.332 7.166 7.166 0 0 1 0 14.332Zm-1.547-6.132a.654.654 0 0 1-1.307 0 .656.656 0 0 1 .905-.607.653.653 0 0 1 .402.607Zm2.601 1.955a.653.653 0 1 1-1.255-.241.65.65 0 0 1 .607-.399.647.647 0 0 1 .648.64Zm1.305-3.908a.653.653 0 1 1-1.305 0 .653.653 0 0 1 1.305 0Zm-3.258-3.908a.652.652 0 1 1-1.305-.01.652.652 0 0 1 1.305.01Zm-3.26 2.612a.646.646 0 0 1-1.009.528.649.649 0 1 1 1.009-.528Zm10.426 2.591a.65.65 0 0 1-1.102.472.648.648 0 1 1 1.102-.472Z" fill="#fff" stroke="#fff" stroke-width=".5"/></svg>