<svg width="35" height="45" fill="none" xmlns="http://www.w3.org/2000/svg"><path d="M33.596 19.032c.383 0 .694-.31.694-.693v-4.161a.694.694 0 0 0-.694-.694h-4.161a.686.686 0 0 0-.678.62l-8.338-4.17V7.937a.694.694 0 0 0-.693-.694h-1.387V3.368l2.283 2.284.98-.98-3.467-3.469a.692.692 0 0 0-.98 0l-3.468 3.468.98.98 2.284-2.283v3.874h-1.387a.694.694 0 0 0-.693.694v1.999l-8.338 4.169a.686.686 0 0 0-.678-.62H1.694a.694.694 0 0 0-.694.694v4.16c0 .384.31.694.694.694H3.08v6.936H1.694A.694.694 0 0 0 1 26.66v4.162c0 .382.31.693.694.693h4.16c.357 0 .64-.272.68-.619l8.337 4.169v1.999c0 .382.31.693.693.693h1.387v3.874l-2.283-2.283-.98.98 3.467 3.468a.692.692 0 0 0 .98 0l3.468-3.468-.98-.98-2.285 2.283v-3.874h1.388c.382 0 .693-.31.693-.693v-2l8.338-4.168c.039.347.322.62.678.62h4.161c.383 0 .694-.312.694-.694V26.66a.694.694 0 0 0-.694-.693H32.21v-6.936h1.387Zm-3.467-4.16h2.774v2.773h-2.774v-2.774ZM16.258 8.628h2.774v2.774h-2.774V8.63Zm-.694 4.162h4.162c.382 0 .693-.311.693-.694v-.612l8.322 4.162v1.223l-8.337 4.169a.686.686 0 0 0-.678-.62h-4.162a.686.686 0 0 0-.678.62L6.548 16.87v-1.223l8.323-4.161v.611c0 .383.31.694.693.694Zm.694 11.79v-2.774h2.774v2.774h-2.774ZM2.387 14.87H5.16v2.774H2.387v-2.774ZM5.16 30.13H2.387v-2.774H5.16v2.774Zm1.387-.775V26.66a.694.694 0 0 0-.693-.693H4.468v-6.936h1.387c.356 0 .639-.272.678-.619l8.338 4.169v2.692c0 .383.31.694.693.694h1.387v6.242h-1.387a.694.694 0 0 0-.693.693v.612l-8.323-4.161Zm12.484 7.017h-2.774v-2.774h2.774v2.774Zm13.87-6.242H30.13v-2.774h2.774v2.774Zm-2.08-4.161h-1.387a.694.694 0 0 0-.694.693v2.693l-8.322 4.161v-.612a.694.694 0 0 0-.694-.693h-1.387v-6.242h1.387c.383 0 .694-.311.694-.694v-2.692l8.337-4.17c.04.348.322.62.679.62h1.387v6.936Z" fill="#fff" stroke="#fff" stroke-width=".5"/></svg>