<svg width="45" height="45" fill="none" xmlns="http://www.w3.org/2000/svg"><path d="M40.292 1H10.637A3.71 3.71 0 0 0 6.93 4.707v29.655a3.71 3.71 0 0 0 3.707 3.707h29.655a3.71 3.71 0 0 0 3.707-3.707.741.741 0 1 0-1.483 0 2.227 2.227 0 0 1-2.224 2.224H10.637a2.227 2.227 0 0 1-2.225-2.224V4.707c0-1.227.998-2.224 2.225-2.224h29.655c1.226 0 2.224.997 2.224 2.224V28.43a.741.741 0 1 0 1.483 0V4.707A3.71 3.71 0 0 0 40.292 1Z" fill="#fff" stroke="#fff" stroke-width=".5"/><path d="M3.224 44h17.793a2.227 2.227 0 0 0 2.224-2.224v-1.483a.741.741 0 1 0-1.482 0v1.483a.743.743 0 0 1-.742.741H3.224a.743.743 0 0 1-.741-.741V23.983c0-.409.333-.742.741-.742h1.483a.741.741 0 1 0 0-1.482H3.224A2.227 2.227 0 0 0 1 23.983v17.793C1 43.002 1.998 44 3.224 44ZM34.36 20.276h2.965c.41 0 .741-.332.741-.741V7.673a.741.741 0 0 0-.741-.742H25.463a.741.741 0 0 0-.742.742v2.965c0 .41.332.741.742.741h4.141L13.077 27.907a.741.741 0 0 0 0 1.048l2.965 2.966a.739.739 0 0 0 1.048 0l16.528-16.528v4.142c0 .41.332.741.741.741ZM16.565 30.348l-1.917-1.917 17.269-17.269a.743.743 0 0 0-.524-1.265h-5.19V8.414h10.38v10.38H35.1v-5.19a.742.742 0 0 0-1.266-.525L16.566 30.35ZM43.257 32.138a.741.741 0 1 0 0-1.483.741.741 0 0 0 0 1.483Z" fill="#fff" stroke="#fff" stroke-width=".5"/></svg>