<svg width="111" height="74" viewBox="0 0 111 74" fill="none" xmlns="http://www.w3.org/2000/svg">
<path d="M107.156 52.348H106.91V39.2108C106.91 38.9649 106.86 38.7216 106.763 38.4957C106.666 38.2698 106.524 38.066 106.345 37.8969L85.4485 18.0513C83.525 16.2184 80.9688 15.198 78.3119 15.2023H66.2771C64.0442 15.212 61.8839 15.9966 60.1651 17.422V17.0143C60.1652 16.7763 60.1183 16.5407 60.0273 16.3208C59.9363 16.1009 59.8028 15.9012 59.6345 15.7329C59.4662 15.5646 59.2665 15.4311 59.0466 15.3401C58.8267 15.2491 58.5911 15.2022 58.3531 15.2023H54.6212C54.2687 11.9129 52.9649 8.7977 50.8695 6.23777C48.7741 3.67784 45.9778 1.78425 42.823 0.788725C39.6682 -0.2068 36.2915 -0.261084 33.1063 0.632515C29.9211 1.52611 27.0655 3.32884 24.8889 5.82009C24.3194 6.5015 23.6049 7.04712 22.7976 7.41711C21.9902 7.78709 21.1105 7.97209 20.2225 7.95861C17.7326 7.88633 15.2742 8.53052 13.1396 9.81461C11.0051 11.0987 9.28413 12.9687 8.18131 15.2023H3.37278C2.47857 15.2033 1.62127 15.5589 0.988967 16.1913C0.356664 16.8236 0.000997593 17.6809 0 18.5751V22.7017C0.000997602 23.5959 0.356665 24.4532 0.988969 25.0855C1.62127 25.7178 2.47857 26.0735 3.37278 26.0745H4.45719L9.59886 52.348H3.3834C2.48643 52.3492 1.62654 52.706 0.992285 53.3403C0.35803 53.9745 0.00118421 54.8344 0 55.7314V59.8368C0.00117942 60.7337 0.358023 61.5936 0.992278 62.2279C1.62653 62.8622 2.48643 63.219 3.3834 63.2202H11.0217C11.452 66.1168 12.9087 68.7624 15.1264 70.6749C17.344 72.5875 20.175 73.6396 23.1034 73.6396C26.0318 73.6396 28.8628 72.5875 31.0804 70.6749C33.2981 68.7624 34.7548 66.1168 35.1851 63.2202H68.1006C68.531 66.1168 69.9877 68.7624 72.2053 70.6749C74.4229 72.5875 77.2539 73.6396 80.1823 73.6396C83.1107 73.6396 85.9417 72.5875 88.1593 70.6749C90.377 68.7624 91.8337 66.1168 92.264 63.2202H107.156C108.051 63.2194 108.91 62.8632 109.544 62.2299C110.177 61.5965 110.533 60.7378 110.534 59.8421V55.7279C110.533 54.832 110.177 53.973 109.544 53.3394C108.91 52.7057 108.052 52.3492 107.156 52.348ZM99.128 36.0406H67.4078V26.0745H88.6344L99.128 36.0406ZM34.0438 55.9721H56.541V59.5961H35.185C34.9976 58.3356 34.6124 57.1126 34.0438 55.9721ZM19.8332 11.5765C21.2198 11.6287 22.6016 11.3866 23.8878 10.866C25.174 10.3455 26.3353 9.55837 27.2952 8.55649C27.4052 8.44131 27.5126 8.32371 27.6174 8.20368C29.3092 6.26818 31.5222 4.86036 33.9922 4.14826C36.4623 3.43616 39.0851 3.44986 41.5475 4.18773C44.01 4.92559 46.2082 6.35646 47.8796 8.30953C49.5511 10.2626 50.6252 12.6554 50.9738 15.2023H12.4266C13.3045 14.0748 14.4278 13.1622 15.7112 12.534C16.9946 11.9057 18.4043 11.5782 19.8332 11.5765ZM3.62406 18.8263H56.541V22.4504H3.62406V18.8263ZM8.15014 26.0745H56.541V52.348H31.2907C29.052 50.3078 26.1322 49.177 23.1034 49.177C20.0745 49.177 17.1547 50.3078 14.9161 52.348H13.2922L8.15014 26.0745ZM3.62406 55.9721H12.163C11.5943 57.1126 11.2092 58.3356 11.0217 59.5961H3.62406V55.9721ZM23.1034 70.0153C21.401 70.0153 19.7369 69.5105 18.3215 68.5647C16.9061 67.619 15.8029 66.2747 15.1514 64.702C14.5 63.1292 14.3295 61.3986 14.6616 59.729C14.9937 58.0594 15.8135 56.5257 17.0172 55.322C18.2209 54.1183 19.7546 53.2985 21.4242 52.9664C23.0938 52.6343 24.8244 52.8047 26.3972 53.4562C27.9699 54.1077 29.3142 55.2108 30.2599 56.6263C31.2057 58.0417 31.7105 59.7058 31.7105 61.4082C31.7079 63.6901 30.8003 65.8779 29.1867 67.4915C27.5731 69.105 25.3853 70.0127 23.1034 70.0153ZM68.1006 59.5961H60.165V24.9384C60.1668 23.3179 60.8113 21.7643 61.9571 20.6185C63.1029 19.4727 64.6565 18.8282 66.277 18.8264H78.3118C80.0398 18.8236 81.7023 19.4872 82.9533 20.6792L84.8185 22.4505H67.0946C66.2168 22.4514 65.3753 22.8006 64.7546 23.4213C64.1339 24.0419 63.7847 24.8835 63.7838 25.7613V36.3539C63.7847 37.2318 64.1338 38.0735 64.7545 38.6943C65.3751 39.3152 66.2167 39.6645 67.0946 39.6656H102.945L103.286 39.9894V52.348H88.3696C86.7334 50.8607 84.7237 49.8463 82.5554 49.4132C80.3871 48.9801 78.1419 49.1446 76.0599 49.8891C73.9779 50.6336 72.1374 51.9301 70.7355 53.6399C69.3335 55.3498 68.4227 57.4086 68.1006 59.5961ZM80.1823 70.0153C78.4799 70.0153 76.8158 69.5105 75.4004 68.5647C73.985 67.619 72.8818 66.2747 72.2303 64.702C71.5789 63.1292 71.4084 61.3986 71.7405 59.729C72.0726 58.0594 72.8924 56.5257 74.0961 55.322C75.2999 54.1183 76.8335 53.2985 78.5031 52.9664C80.1727 52.6343 81.9033 52.8047 83.4761 53.4562C85.0488 54.1077 86.3931 55.2108 87.3389 56.6263C88.2846 58.0417 88.7894 59.7058 88.7894 61.4082C88.7868 63.6901 87.8792 65.8779 86.2656 67.4915C84.652 69.105 82.4642 70.0127 80.1823 70.0153ZM106.91 59.5961H92.264C92.0765 58.3356 91.6913 57.1126 91.1227 55.9721H106.91V59.5961ZM80.1823 56.4251C79.1967 56.4251 78.2333 56.7173 77.4138 57.2649C76.5944 57.8124 75.9557 58.5907 75.5785 59.5012C75.2014 60.4118 75.1027 61.4137 75.295 62.3803C75.4872 63.3469 75.9618 64.2348 76.6587 64.9317C77.3556 65.6286 78.2435 66.1032 79.2101 66.2955C80.1768 66.4878 81.1787 66.3891 82.0892 66.0119C82.9998 65.6348 83.778 64.9961 84.3256 64.1766C84.8731 63.3571 85.1654 62.3937 85.1654 61.4082C85.164 60.087 84.6386 58.8203 83.7044 57.8861C82.7702 56.9518 81.5035 56.4264 80.1823 56.4251ZM80.1823 62.7672C79.9135 62.7672 79.6507 62.6875 79.4272 62.5381C79.2038 62.3888 79.0296 62.1766 78.9267 61.9282C78.8239 61.6799 78.7969 61.4067 78.8494 61.143C78.9018 60.8794 79.0312 60.6372 79.2213 60.4472C79.4114 60.2571 79.6535 60.1277 79.9172 60.0752C80.1808 60.0228 80.454 60.0497 80.7024 60.1526C80.9507 60.2554 81.1629 60.4296 81.3123 60.6531C81.4616 60.8766 81.5413 61.1394 81.5413 61.4082C81.5406 61.7684 81.3972 62.1136 81.1425 62.3684C80.8878 62.6231 80.5425 62.7665 80.1823 62.7672ZM23.1034 56.4251C22.1178 56.4251 21.1544 56.7173 20.3349 57.2649C19.5155 57.8124 18.8768 58.5907 18.4996 59.5012C18.1224 60.4118 18.0238 61.4137 18.216 62.3803C18.4083 63.3469 18.8829 64.2348 19.5798 64.9317C20.2767 65.6286 21.1646 66.1032 22.1312 66.2955C23.0978 66.4878 24.0998 66.3891 25.0103 66.0119C25.9209 65.6348 26.6991 64.9961 27.2466 64.1766C27.7942 63.3571 28.0864 62.3937 28.0864 61.4082C28.0851 60.087 27.5597 58.8203 26.6255 57.8861C25.6912 56.9518 24.4246 56.4264 23.1034 56.4251ZM23.1034 62.7672C22.8346 62.7672 22.5718 62.6875 22.3483 62.5381C22.1248 62.3888 21.9507 62.1766 21.8478 61.9282C21.7449 61.6799 21.718 61.4067 21.7705 61.143C21.8229 60.8794 21.9523 60.6372 22.1424 60.4472C22.3325 60.2571 22.5746 60.1277 22.8382 60.0752C23.1019 60.0228 23.3751 60.0497 23.6234 60.1526C23.8718 60.2554 24.084 60.4296 24.2334 60.6531C24.3827 60.8766 24.4624 61.1394 24.4624 61.4082C24.4617 61.7684 24.3183 62.1136 24.0636 62.3684C23.8089 62.6231 23.4636 62.7665 23.1034 62.7672Z" fill="white"/>
</svg>
